<svg preserveAspectRatio="none" overflow="visible" style="display: block;" width="10.7773" height="10.7773" viewBox="0 0 10.7773 10.7773" fill="none" xmlns="http://www.w3.org/2000/svg">
<g id="Icon">
<path id="Vector" d="M1.34716 4.93959L9.43013 2.69432V8.08297L1.34716 6.28675V4.93959Z" stroke="#274AD1" stroke-width="0.808297" stroke-linecap="round" stroke-linejoin="round"/>
<path id="Vector_2" d="M5.20902 7.5441C5.16185 7.71512 5.08145 7.87517 4.97242 8.01511C4.86339 8.15505 4.72786 8.27215 4.57358 8.35972C4.41929 8.44728 4.24927 8.50361 4.07322 8.52546C3.89717 8.54732 3.71854 8.53429 3.54752 8.48712C3.37651 8.43994 3.21646 8.35954 3.07652 8.25051C2.93658 8.14148 2.81948 8.00596 2.73191 7.85167C2.64434 7.69739 2.58802 7.52737 2.56616 7.35131C2.5443 7.17526 2.55734 6.99663 2.60451 6.82562" stroke="#274AD1" stroke-width="0.808297" stroke-linecap="round" stroke-linejoin="round"/>
</g>
</svg>
